<svg width="95" height="55" viewBox="0 0 95 55" fill="none" xmlns="http://www.w3.org/2000/svg">
<g clip-path="url(#clip0_124_72)">
<mask id="mask0_124_72" style="mask-type:luminance" maskUnits="userSpaceOnUse" x="0" y="0" width="95" height="55">
<path d="M0 54.889H94.3725V0H0V54.889Z" fill="white"/>
</mask>
<g mask="url(#mask0_124_72)">
<mask id="mask1_124_72" style="mask-type:luminance" maskUnits="userSpaceOnUse" x="56" y="21" width="5" height="4">
<path d="M58.1311 21.3208C57.6206 21.4691 56.9133 22.7227 56.9058 23.4285C56.901 23.8737 57.2139 24.536 57.5459 24.5371C57.9724 24.5387 59.9183 24.1543 60.1798 23.7147C60.3554 23.4198 59.6328 22.3218 59.532 21.9571C59.4033 21.4916 58.4858 21.218 58.1311 21.3208Z" fill="white"/>
</mask>
<g mask="url(#mask1_124_72)">
<path d="M57.3764 25.1412L57.3735 25.1336L60.5375 23.905L60.5404 23.9128L57.3764 25.1412Z" fill="#FBC058"/>
<path d="M57.3758 25.1397L57.3687 25.1207L60.5328 23.8925L60.5399 23.9115L57.3758 25.1397Z" fill="#FBC15A"/>
<path d="M57.3714 25.127L57.3643 25.108L60.5281 23.8798L60.5352 23.8986L57.3714 25.127Z" fill="#FBC15D"/>
<path d="M57.3665 25.1144L57.3594 25.0954L60.5233 23.8672L60.5305 23.886L57.3665 25.1144Z" fill="#FBC25F"/>
<path d="M57.3616 25.1017L57.3545 25.0826L60.5185 23.8542L60.5256 23.8733L57.3616 25.1017Z" fill="#FBC361"/>
<path d="M57.3567 25.089L57.3496 25.0699L60.5138 23.8416L60.5209 23.8606L57.3567 25.089Z" fill="#FBC463"/>
<path d="M57.3519 25.0763L57.3447 25.0571L60.5089 23.8289L60.516 23.8479L57.3519 25.0763Z" fill="#FBC566"/>
<path d="M57.3475 25.0637L57.3403 25.0445L60.5043 23.8163L60.5114 23.8353L57.3475 25.0637Z" fill="#FBC669"/>
<path d="M57.3426 25.051L57.3354 25.0318L60.4994 23.8036L60.5065 23.8224L57.3426 25.051Z" fill="#FBC76B"/>
<path d="M57.3375 25.0382L57.3306 25.019L60.4945 23.7906L60.5017 23.8097L57.3375 25.0382Z" fill="#FCC86D"/>
<path d="M57.3328 25.0254L57.3257 25.0063L60.4898 23.778L60.497 23.797L57.3328 25.0254Z" fill="#FBC86F"/>
<path d="M57.3279 25.0127L57.3208 24.9937L60.485 23.7651L60.4921 23.7843L57.3279 25.0127Z" fill="#FBC971"/>
<path d="M57.3235 25.0001L57.3164 24.9809L60.4806 23.7527L60.4877 23.7717L57.3235 25.0001Z" fill="#FBCA73"/>
<path d="M57.3186 24.9874L57.3115 24.9682L60.4755 23.74L60.4826 23.7588L57.3186 24.9874Z" fill="#FBCB76"/>
<path d="M57.3138 24.9745L57.3066 24.9555L60.4708 23.7273L60.4779 23.7461L57.3138 24.9745Z" fill="#FBCC78"/>
<path d="M57.3094 24.9618L57.3022 24.9427L60.4664 23.7144L60.4735 23.7334L57.3094 24.9618Z" fill="#FBCD7A"/>
<path d="M57.3045 24.9492L57.2974 24.9302L60.4613 23.7018L60.4685 23.7208L57.3045 24.9492Z" fill="#FBCD7C"/>
<path d="M57.2996 24.9365L57.2925 24.9175L60.4565 23.6891L60.4636 23.7081L57.2996 24.9365Z" fill="#FCCE7E"/>
<path d="M57.2947 24.9239L57.2876 24.9048L60.4516 23.6763L60.4587 23.6955L57.2947 24.9239Z" fill="#FCCF81"/>
<path d="M57.2898 24.9109L57.2827 24.8919L60.4469 23.6637L60.454 23.6825L57.2898 24.9109Z" fill="#FCD083"/>
<path d="M57.2854 24.8983L57.2783 24.8793L60.4425 23.6509L60.4496 23.6699L57.2854 24.8983Z" fill="#FCD185"/>
<path d="M57.2806 24.8856L57.2734 24.8666L60.4374 23.6382L60.4445 23.6572L57.2806 24.8856Z" fill="#FCD287"/>
<path d="M57.2757 24.8729L57.2686 24.8539L60.4325 23.6255L60.4397 23.6445L57.2757 24.8729Z" fill="#FCD389"/>
<path d="M57.2708 24.8602L57.2637 24.8412L60.4276 23.6128L60.4348 23.6318L57.2708 24.8602Z" fill="#FCD38B"/>
<path d="M57.2664 24.8475L57.2593 24.8283L60.4231 23.6001L60.4302 23.6189L57.2664 24.8475Z" fill="#FCD48D"/>
<path d="M57.2615 24.8346L57.2544 24.8156L60.4182 23.5874L60.4253 23.6064L57.2615 24.8346Z" fill="#FCD48F"/>
<path d="M57.2566 24.822L57.2495 24.803L60.4135 23.5746L60.4206 23.5936L57.2566 24.822Z" fill="#FCD591"/>
<path d="M57.2517 24.8093L57.2446 24.7903L60.4086 23.5619L60.4157 23.5809L57.2517 24.8093Z" fill="#FBD693"/>
<path d="M57.2469 24.7966L57.2397 24.7776L60.4039 23.5492L60.411 23.5682L57.2469 24.7966Z" fill="#FBD796"/>
<path d="M57.2425 24.784L57.2354 24.765L60.3993 23.5364L60.4064 23.5556L57.2425 24.784Z" fill="#FCD798"/>
<path d="M57.2376 24.7713L57.2305 24.7521L60.3944 23.5239L60.4016 23.5429L57.2376 24.7713Z" fill="#FCD89A"/>
<path d="M57.2327 24.7585L57.2256 24.7393L60.3896 23.5111L60.3967 23.5299L57.2327 24.7585Z" fill="#FCD99B"/>
<path d="M57.2278 24.7458L57.2207 24.7267L60.3847 23.4985L60.3918 23.5174L57.2278 24.7458Z" fill="#FCDA9D"/>
<path d="M57.2234 24.733L57.2163 24.714L60.3805 23.4856L60.3876 23.5046L57.2234 24.733Z" fill="#FCDBA0"/>
<path d="M57.2185 24.7203L57.2114 24.7013L60.3752 23.4729L60.3823 23.4919L57.2185 24.7203Z" fill="#FCDBA2"/>
<path d="M57.2137 24.7077L57.2065 24.6885L60.3705 23.4603L60.3776 23.4794L57.2137 24.7077Z" fill="#FCDCA4"/>
<path d="M57.2093 24.695L57.2021 24.6758L60.3661 23.4476L60.3732 23.4667L57.2093 24.695Z" fill="#FCDBA2"/>
<path d="M57.2044 24.6823L57.1973 24.6631L60.3614 23.4349L60.3685 23.4538L57.2044 24.6823Z" fill="#FBDAA0"/>
<path d="M57.1995 24.6694L57.1924 24.6504L60.3562 23.422L60.3633 23.441L57.1995 24.6694Z" fill="#FBD99E"/>
<path d="M57.1946 24.6568L57.1875 24.6378L60.3515 23.4094L60.3586 23.4284L57.1946 24.6568Z" fill="#FAD89C"/>
<path d="M57.1897 24.6441L57.1826 24.6251L60.3468 23.3965L60.3539 23.4157L57.1897 24.6441Z" fill="#FAD89B"/>
<path d="M57.1853 24.6314L57.1782 24.6122L60.3422 23.384L60.3493 23.4031L57.1853 24.6314Z" fill="#F9D799"/>
<path d="M57.1805 24.6188L57.1733 24.5995L60.3375 23.3713L60.3446 23.3902L57.1805 24.6188Z" fill="#F9D597"/>
<path d="M57.1756 24.6059L57.1685 24.5869L60.3326 23.3586L60.3397 23.3775L57.1756 24.6059Z" fill="#F9D595"/>
<path d="M57.1707 24.5932L57.1636 24.5742L60.3275 23.3458L60.3347 23.3648L57.1707 24.5932Z" fill="#F8D392"/>
<path d="M57.1663 24.5805L57.1592 24.5615L60.3232 23.3331L60.3303 23.3522L57.1663 24.5805Z" fill="#F8D291"/>
<path d="M57.1614 24.5678L57.1543 24.5488L60.3184 23.3204L60.3256 23.3395L57.1614 24.5678Z" fill="#F8D290"/>
<path d="M57.1565 24.5552L57.1494 24.5362L60.3136 23.3076L60.3207 23.3268L57.1565 24.5552Z" fill="#F7D08D"/>
<path d="M57.1517 24.5425L57.1445 24.5233L60.3085 23.295L60.3156 23.3139L57.1517 24.5425Z" fill="#F7D08C"/>
<path d="M57.1468 24.5296L57.1396 24.5106L60.3036 23.2822L60.3107 23.3012L57.1468 24.5296Z" fill="#F6CF89"/>
<path d="M57.1424 24.5169L57.1353 24.4979L60.2994 23.2695L60.3064 23.2886L57.1424 24.5169Z" fill="#F6CE88"/>
<path d="M57.1375 24.5042L57.1304 24.4852L60.2945 23.2568L60.3016 23.2759L57.1375 24.5042Z" fill="#F5CD85"/>
<path d="M57.1326 24.4916L57.1255 24.4725L60.2895 23.2441L60.2966 23.2632L57.1326 24.4916Z" fill="#F5CC84"/>
<path d="M57.1282 24.4789L57.1211 24.4597L60.2851 23.2314L60.2922 23.2505L57.1282 24.4789Z" fill="#F4CB82"/>
<path d="M57.1233 24.466L57.1162 24.447L60.2802 23.2188L60.2873 23.2376L57.1233 24.466Z" fill="#F3C980"/>
<path d="M57.1186 24.4533L57.1113 24.4343L60.2753 23.2059L60.2824 23.225L57.1186 24.4533Z" fill="#F3C97E"/>
<path d="M57.1136 24.4406L57.1064 24.4216L60.2706 23.1932L60.2777 23.2123L57.1136 24.4406Z" fill="#F3C87C"/>
<path d="M57.1092 24.428L57.1021 24.4089L60.2658 23.1805L60.273 23.1996L57.1092 24.428Z" fill="#F2C77A"/>
<path d="M57.1043 24.4151L57.0972 24.3963L60.2611 23.1677L60.2683 23.1869L57.1043 24.4151Z" fill="#F2C678"/>
<path d="M57.0994 24.4025L57.0923 24.3835L60.2563 23.1553L60.2634 23.1741L57.0994 24.4025Z" fill="#F2C577"/>
<path d="M57.0945 24.3898L57.0874 24.3708L60.2515 23.1426L60.2587 23.1614L57.0945 24.3898Z" fill="#F1C475"/>
<path d="M57.0896 24.3771L57.0825 24.3581L60.2463 23.1299L60.2534 23.1487L57.0896 24.3771Z" fill="#F1C373"/>
<path d="M57.0852 24.3644L57.0781 24.3453L60.2421 23.1169L60.2492 23.136L57.0852 24.3644Z" fill="#F0C271"/>
<path d="M57.0804 24.3517L57.0732 24.3326L60.2372 23.1042L60.2443 23.1233L57.0804 24.3517Z" fill="#F0C16F"/>
<path d="M57.0755 24.3391L57.0684 24.3199L60.2325 23.0917L60.2396 23.1107L57.0755 24.3391Z" fill="#EFC06C"/>
<path d="M57.0706 24.3264L57.0635 24.3072L60.2276 23.079L60.2347 23.098L57.0706 24.3264Z" fill="#EFBF6B"/>
<path d="M57.0662 24.3137L57.0591 24.2945L60.223 23.0663L60.2302 23.0851L57.0662 24.3137Z" fill="#EEBE69"/>
<path d="M57.0613 24.3009L57.0542 24.2817L60.2182 23.0533L60.2253 23.0724L57.0613 24.3009Z" fill="#EEBD67"/>
<path d="M57.0564 24.2884L57.0493 24.2692L60.2133 23.0408L60.2204 23.0598L57.0564 24.2884Z" fill="#EEBC65"/>
<path d="M57.0516 24.2754L57.0444 24.2564L60.2086 23.0278L60.2157 23.047L57.0516 24.2754Z" fill="#EDBB63"/>
<path d="M57.0472 24.2628L57.04 24.2436L60.2038 23.0154L60.211 23.0344L57.0472 24.2628Z" fill="#EDBA61"/>
<path d="M57.0418 24.2501L57.0347 24.2309L60.1988 23.0027L60.2059 23.0217L57.0418 24.2501Z" fill="#ECB960"/>
<path d="M57.0374 24.2372L57.0303 24.2182L60.1942 22.99L60.2014 23.0088L57.0374 24.2372Z" fill="#ECB95E"/>
<path d="M57.0325 24.2246L57.0254 24.2056L60.1895 22.9772L60.1967 22.9962L57.0325 24.2246Z" fill="#ECB85C"/>
<path d="M57.0276 24.2119L57.0205 24.1929L60.1847 22.9645L60.1918 22.9835L57.0276 24.2119Z" fill="#EBB65A"/>
<path d="M57.0227 24.1992L57.0156 24.1802L60.1798 22.9518L60.1869 22.9708L57.0227 24.1992Z" fill="#EBB658"/>
<path d="M57.0184 24.1866L57.0112 24.1675L60.1752 22.939L60.1823 22.9582L57.0184 24.1866Z" fill="#EAB556"/>
<path d="M57.0135 24.1738L57.0063 24.1546L60.1703 22.9264L60.1774 22.9452L57.0135 24.1738Z" fill="#E9B454"/>
<path d="M57.0086 24.161L57.0015 24.142L60.1654 22.9136L60.1726 22.9326L57.0086 24.161Z" fill="#E9B353"/>
<path d="M57.0037 24.1483L56.9966 24.1293L60.1607 22.9009L60.1679 22.9199L57.0037 24.1483Z" fill="#E9B251"/>
<path d="M56.9993 24.1356L56.9922 24.1166L60.1562 22.8882L60.1633 22.9072L56.9993 24.1356Z" fill="#E8B14F"/>
<path d="M56.9944 24.1229L56.9873 24.1039L60.1513 22.8755L60.1584 22.8945L56.9944 24.1229Z" fill="#E8B14D"/>
<path d="M56.9895 24.1102L56.9824 24.091L60.1466 22.8628L60.1537 22.8816L56.9895 24.1102Z" fill="#E8B04C"/>
<path d="M56.9852 24.0973L56.978 24.0783L60.1418 22.8501L60.1489 22.8689L56.9852 24.0973Z" fill="#E7AF4A"/>
<path d="M56.9803 24.0847L56.9731 24.0657L60.1369 22.8373L60.1441 22.8563L56.9803 24.0847Z" fill="#E7AE48"/>
<path d="M56.9754 24.072L56.9683 24.053L60.1322 22.8246L60.1394 22.8436L56.9754 24.072Z" fill="#E7AD47"/>
<path d="M56.9705 24.0593L56.9634 24.0403L60.1274 22.8119L60.1345 22.8309L56.9705 24.0593Z" fill="#E6AC44"/>
<path d="M56.9656 24.0467L56.9585 24.0276L60.1226 22.7991L60.1298 22.8183L56.9656 24.0467Z" fill="#E6AB42"/>
<path d="M56.9612 24.034L56.9541 24.0148L60.1182 22.7866L60.1254 22.8056L56.9612 24.034Z" fill="#E5AA40"/>
<path d="M56.9563 24.0213L56.9492 24.0021L60.1132 22.7739L60.1203 22.7928L56.9563 24.0213Z" fill="#E5AA3F"/>
<path d="M56.9515 24.0085L56.9443 23.9894L60.1083 22.7612L60.1154 22.7801L56.9515 24.0085Z" fill="#E4A83D"/>
<path d="M56.9466 23.9958L56.9395 23.9768L60.1034 22.7484L60.1105 22.7674L56.9466 23.9958Z" fill="#E4A83B"/>
<path d="M56.9417 23.983L56.9346 23.964L60.0987 22.7356L60.1058 22.7546L56.9417 23.983Z" fill="#E3A73A"/>
<path d="M56.9373 23.9704L56.9302 23.9512L60.094 22.723L60.1011 22.742L56.9373 23.9704Z" fill="#E3A637"/>
<path d="M56.9324 23.9577L56.9253 23.9385L60.0893 22.7103L60.0964 22.7293L56.9324 23.9577Z" fill="#E3A535"/>
<path d="M56.9275 23.945L56.9204 23.9258L60.0844 22.6976L60.0915 22.7165L56.9275 23.945Z" fill="#E2A433"/>
<path d="M56.9227 23.9321L56.9155 23.9131L60.0797 22.6847L60.0868 22.7037L56.9227 23.9321Z" fill="#E2A332"/>
<path d="M56.9183 23.9195L56.9111 23.9005L60.0753 22.6721L60.0824 22.6911L56.9183 23.9195Z" fill="#E2A330"/>
<path d="M56.9134 23.9068L56.9062 23.8878L60.0702 22.6592L60.0773 22.6784L56.9134 23.9068Z" fill="#E1A22D"/>
<path d="M56.9085 23.8941L56.9014 23.8751L60.0655 22.6465L60.0726 22.6657L56.9085 23.8941Z" fill="#E1A12C"/>
<path d="M56.9036 23.8814L56.8965 23.8622L60.0605 22.634L60.0676 22.6531L56.9036 23.8814Z" fill="#E0A02A"/>
<path d="M56.8987 23.8686L56.8916 23.8495L60.0558 22.6213L60.0629 22.6402L56.8987 23.8686Z" fill="#DF9F27"/>
<path d="M56.8943 23.8559L56.8872 23.8369L60.0514 22.6085L60.0585 22.6275L56.8943 23.8559Z" fill="#DF9F25"/>
<path d="M56.8894 23.8432L56.8823 23.8242L60.0463 22.5958L60.0534 22.6148L56.8894 23.8432Z" fill="#DE9D22"/>
<path d="M56.8846 23.8305L56.8774 23.8115L60.0414 22.5831L60.0485 22.6022L56.8846 23.8305Z" fill="#DE9D20"/>
<path d="M56.8802 23.8179L56.873 23.7989L60.0372 22.5703L60.0443 22.5895L56.8802 23.8179Z" fill="#DE9C1D"/>
<path d="M56.8753 23.8052L56.8682 23.7859L60.0323 22.5577L60.0394 22.5766L56.8753 23.8052Z" fill="#DD9B1C"/>
<path d="M56.8704 23.7923L56.8633 23.7733L60.0273 22.5449L60.0344 22.5639L56.8704 23.7923Z" fill="#DD9B1C"/>
<path d="M56.8655 23.7796L56.8584 23.7606L60.0224 22.5322L60.0295 22.5512L56.8655 23.7796Z" fill="#DD9B1D"/>
<path d="M56.8611 23.7669L56.854 23.7479L60.018 22.5195L60.0251 22.5386L56.8611 23.7669Z" fill="#DE9D20"/>
<path d="M56.8562 23.7542L56.8491 23.7352L60.0133 22.5068L60.0204 22.5259L56.8562 23.7542Z" fill="#DE9D21"/>
<path d="M56.8514 23.7416L56.8442 23.7226L60.0082 22.494L60.0153 22.513L56.8514 23.7416Z" fill="#DE9E24"/>
<path d="M56.8465 23.7287L56.8394 23.7097L60.0031 22.4814L60.0103 22.5003L56.8465 23.7287Z" fill="#E09F25"/>
<path d="M56.8416 23.716L56.8345 23.697L59.9984 22.4686L60.0056 22.4876L56.8416 23.716Z" fill="#E0A028"/>
<path d="M56.8374 23.7033L56.8301 23.6843L59.9941 22.4559L60.0012 22.475L56.8374 23.7033Z" fill="#E0A02A"/>
<path d="M56.8323 23.6906L56.8252 23.6716L59.9893 22.4432L59.9965 22.4623L56.8323 23.6906Z" fill="#E1A12C"/>
<path d="M56.8274 23.6778L56.8203 23.659L59.9843 22.4304L59.9914 22.4496L56.8274 23.6778Z" fill="#E1A22D"/>
<path d="M56.8225 23.6651L56.8154 23.6461L59.9794 22.4178L59.9865 22.4369L56.8225 23.6651Z" fill="#E1A32F"/>
<path d="M56.8182 23.6525L56.811 23.6335L59.9752 22.4053L59.9823 22.4241L56.8182 23.6525Z" fill="#E2A331"/>
<path d="M56.8133 23.6398L56.8062 23.6208L59.9703 22.3926L59.9774 22.4114L56.8133 23.6398Z" fill="#E2A433"/>
<path d="M56.8084 23.6272L56.8013 23.6082L59.9654 22.3798L59.9725 22.3988L56.8084 23.6272Z" fill="#E2A534"/>
<path d="M56.804 23.6144L56.7969 23.5953L59.9608 22.3669L59.968 22.386L56.804 23.6144Z" fill="#E2A536"/>
<path d="M56.7991 23.6018L56.792 23.5826L59.956 22.3544L59.9631 22.3734L56.7991 23.6018Z" fill="#E4A637"/>
<path d="M56.7942 23.5891L56.7871 23.5699L59.9511 22.3417L59.9582 22.3607L56.7942 23.5891Z" fill="#E4A739"/>
<path d="M56.7894 23.5764L56.7822 23.5572L59.9464 22.329L59.9535 22.3478L56.7894 23.5764Z" fill="#E4A83B"/>
<path d="M56.7845 23.5638L56.7773 23.5446L59.9411 22.3162L59.9483 22.3352L56.7845 23.5638Z" fill="#E5A93C"/>
<path d="M56.7801 23.5511L56.7729 23.5319L59.9369 22.3035L59.944 22.3225L56.7801 23.5511Z" fill="#E5A93E"/>
<path d="M56.7752 23.5381L56.7681 23.5191L59.932 22.2905L59.9392 22.3097L56.7752 23.5381Z" fill="#E5AA3F"/>
<path d="M56.7703 23.5255L56.7632 23.5065L59.9273 22.2781L59.9345 22.2971L56.7703 23.5255Z" fill="#E6AB41"/>
<path d="M56.7654 23.5128L56.7583 23.4936L59.9221 22.2654L59.9292 22.2844L56.7654 23.5128Z" fill="#E6AB42"/>
<path d="M56.7605 23.4999L56.7534 23.4809L59.9176 22.2527L59.9247 22.2715L56.7605 23.4999Z" fill="#E6AC44"/>
<path d="M56.7561 23.4873L56.749 23.4683L59.913 22.2399L59.9201 22.2589L56.7561 23.4873Z" fill="#E7AD46"/>
<path d="M56.7513 23.4746L56.7441 23.4556L59.9083 22.2272L59.9154 22.2462L56.7513 23.4746Z" fill="#E7AE48"/>
<path d="M56.7464 23.4619L56.7393 23.4429L59.9034 22.2145L59.9105 22.2335L56.7464 23.4619Z" fill="#E7AF49"/>
<path d="M56.7415 23.4492L56.7344 23.4302L59.8985 22.2018L59.9057 22.2208L56.7415 23.4492Z" fill="#E8AF4B"/>
<path d="M56.7371 23.4365L56.73 23.4173L59.894 22.1891L59.9011 22.2079L56.7371 23.4365Z" fill="#E8B04C"/>
<path d="M56.7322 23.4237L56.7251 23.4047L59.8891 22.1763L59.8962 22.1953L56.7322 23.4237Z" fill="#E8B14E"/>
<path d="M56.7273 23.411L56.7202 23.392L59.8844 22.1636L59.8915 22.1826L56.7273 23.411Z" fill="#E9B24F"/>
<path d="M56.7229 23.3983L56.7158 23.3793L59.8796 22.1509L59.8867 22.1699L56.7229 23.3983Z" fill="#E9B251"/>
<path d="M56.7181 23.3856L56.7109 23.3666L59.8749 22.1382L59.882 22.1572L56.7181 23.3856Z" fill="#E9B352"/>
<path d="M56.7132 23.373L56.7061 23.3539L59.87 22.1254L59.8771 22.1446L56.7132 23.373Z" fill="#E9B454"/>
<path d="M56.7083 23.3601L56.7012 23.3411L59.8653 22.1129L59.8724 22.1318L56.7083 23.3601Z" fill="#EAB555"/>
<path d="M56.7039 23.3474L56.6968 23.3284L59.8606 22.1L59.8677 22.119L56.7039 23.3474Z" fill="#EBB557"/>
<path d="M56.699 23.3347L56.6919 23.3157L59.8559 22.0873L59.863 22.1063L56.699 23.3347Z" fill="#EBB658"/>
<path d="M56.6941 23.322L56.687 23.303L59.851 22.0746L59.8581 22.0936L56.6941 23.322Z" fill="#ECB75B"/>
<path d="M56.6892 23.3094L56.6821 23.2903L59.8461 22.0618L59.8532 22.081L56.6892 23.3094Z" fill="#ECB75B"/>
<path d="M56.6844 23.2967L56.6772 23.2775L59.8414 22.0493L59.8485 22.0683L56.6844 23.2967Z" fill="#ECB85D"/>
<path d="M56.6795 23.284L56.6724 23.2648L59.8365 22.0366L59.8436 22.0556L56.6795 23.284Z" fill="#ECB95F"/>
<path d="M56.6751 23.2712L56.668 23.2521L59.8318 22.0239L59.8389 22.0428L56.6751 23.2712Z" fill="#EDBA60"/>
<path d="M56.6702 23.2585L56.6631 23.2395L59.8271 22.0111L59.8342 22.0301L56.6702 23.2585Z" fill="#EDBA62"/>
<path d="M56.6653 23.2458L56.6582 23.2268L59.8222 21.9984L59.8293 22.0174L56.6653 23.2458Z" fill="#EDBB63"/>
<path d="M56.6604 23.2331L56.6533 23.214L59.8175 21.9855L59.8246 22.0047L56.6604 23.2331Z" fill="#EEBD65"/>
<path d="M56.656 23.2204L56.6489 23.2012L59.8129 21.973L59.82 21.992L56.656 23.2204Z" fill="#EEBD66"/>
<path d="M56.6512 23.2077L56.644 23.1885L59.808 21.9603L59.8151 21.9792L56.6512 23.2077Z" fill="#EFBF69"/>
<path d="M56.6463 23.1949L56.6392 23.1758L59.8031 21.9476L59.8103 21.9665L56.6463 23.1949Z" fill="#F0C06B"/>
<path d="M56.6414 23.1822L56.6343 23.1632L59.7984 21.9348L59.8055 21.9538L56.6414 23.1822Z" fill="#F0C16E"/>
<path d="M56.637 23.1695L56.6299 23.1504L59.7937 21.9219L59.8008 21.9411L56.637 23.1695Z" fill="#F1C271"/>
<path d="M56.6321 23.1568L56.625 23.1378L59.789 21.9092L59.7961 21.9284L56.6321 23.1568Z" fill="#F2C474"/>
<path d="M56.6272 23.1442L56.6201 23.1252L59.7843 21.8966L59.7914 21.9158L56.6272 23.1442Z" fill="#F2C677"/>
<path d="M56.6224 23.1313L56.6152 23.1122L59.7792 21.884L59.7863 21.9029L56.6224 23.1313Z" fill="#F3C77A"/>
<path d="M56.6175 23.1186L56.6104 23.0996L59.7745 21.8712L59.7816 21.8902L56.6175 23.1186Z" fill="#F3C87C"/>
<path d="M56.6131 23.1059L56.606 23.0869L59.7701 21.8585L59.7772 21.8775L56.6131 23.1059Z" fill="#F4CA7F"/>
<path d="M56.6082 23.0932L56.6011 23.0742L59.765 21.8458L59.7722 21.8648L56.6082 23.0932Z" fill="#F4CB82"/>
<path d="M56.6033 23.0805L56.5962 23.0615L59.7602 21.8331L59.7673 21.8522L56.6033 23.0805Z" fill="#F5CC84"/>
<path d="M56.5984 23.0678L56.5913 23.0486L59.7555 21.8204L59.7626 21.8393L56.5984 23.0678Z" fill="#F6CE87"/>
<path d="M56.594 23.055L56.5869 23.036L59.7507 21.8076L59.7578 21.8266L56.594 23.055Z" fill="#F7CF89"/>
<path d="M56.5892 23.0423L56.582 23.0233L59.746 21.7949L59.7531 21.8139L56.5892 23.0423Z" fill="#F8D18C"/>
<path d="M56.5843 23.0296L56.5771 23.0106L59.7411 21.7822L59.7482 21.8012L56.5843 23.0296Z" fill="#F8D28F"/>
<path d="M56.5794 23.0169L56.5723 22.9979L59.7362 21.7695L59.7434 21.7886L56.5794 23.0169Z" fill="#F9D492"/>
<path d="M56.5745 23.0043L56.5674 22.9853L59.7315 21.7567L59.7387 21.7759L56.5745 23.0043Z" fill="#F9D594"/>
<path d="M56.5701 22.9915L56.563 22.9725L59.7268 21.7443L59.7339 21.7631L56.5701 22.9915Z" fill="#FAD697"/>
<path d="M56.5652 22.9787L56.5581 22.9597L59.7221 21.7313L59.7292 21.7503L56.5652 22.9787Z" fill="#FAD799"/>
<path d="M56.5603 22.9662L56.5532 22.9471L59.7172 21.7188L59.7243 21.7378L56.5603 22.9662Z" fill="#FBD99C"/>
<path d="M56.5561 22.9533L56.5488 22.9343L59.713 21.7059L59.7201 21.725L56.5561 22.9533Z" fill="#FBDA9E"/>
<path d="M56.5511 22.9405L56.5439 22.9217L59.7077 21.6931L59.7149 21.7123L56.5511 22.9405Z" fill="#FCDBA1"/>
<path d="M56.5462 22.9279L56.5391 22.9089L59.703 21.6807L59.7102 21.6997L56.5462 22.9279Z" fill="#FDDDA4"/>
<path d="M56.5413 22.9152L56.5342 22.8962L59.6982 21.668L59.7053 21.687L56.5413 22.9152Z" fill="#FEDFA7"/>
<path d="M56.5364 22.9025L56.5293 22.8835L59.6934 21.6553L59.7004 21.6741L56.5364 22.9025Z" fill="#FFE0AA"/>
<path d="M56.532 22.8899L56.5249 22.8708L59.689 21.6425L59.6962 21.6615L56.532 22.8899Z" fill="#FFE1AC"/>
<path d="M56.5271 22.8772L56.52 22.8582L59.684 21.6298L59.6911 21.6488L56.5271 22.8772Z" fill="#FFE1AA"/>
<path d="M56.5223 22.8644L56.5151 22.8454L59.6791 21.6168L59.6862 21.636L56.5223 22.8644Z" fill="#FFE1A8"/>
<path d="M56.5174 22.8518L56.5103 22.8326L59.6742 21.6044L59.6814 21.6234L56.5174 22.8518Z" fill="#FFE0A7"/>
<path d="M56.513 22.8391L56.5059 22.8199L59.6698 21.5917L59.6769 21.6105L56.513 22.8391Z" fill="#FFE0A6"/>
<path d="M56.5081 22.8264L56.501 22.8072L59.6651 21.579L59.6722 21.5978L56.5081 22.8264Z" fill="#FEE0A5"/>
<path d="M56.5032 22.8138L56.4961 22.7946L59.6599 21.5662L59.667 21.5852L56.5032 22.8138Z" fill="#FEDFA3"/>
<path d="M56.4983 22.8009L56.4912 22.7819L59.6552 21.5535L59.6623 21.5725L56.4983 22.8009Z" fill="#FEDFA2"/>
<path d="M56.4935 22.7881L56.4863 22.7691L59.6503 21.5405L59.6574 21.5597L56.4935 22.7881Z" fill="#FEDFA0"/>
<path d="M56.4891 22.7755L56.4819 22.7565L59.6461 21.528L59.6532 21.5472L56.4891 22.7755Z" fill="#FEDE9F"/>
<path d="M56.4842 22.7626L56.4771 22.7436L59.6412 21.5154L59.6483 21.5342L56.4842 22.7626Z" fill="#FEDE9D"/>
<path d="M56.4793 22.75L56.4722 22.731L59.6363 21.5026L59.6434 21.5216L56.4793 22.75Z" fill="#FEDE9C"/>
<path d="M56.4749 22.7373L56.4678 22.7183L59.6317 21.4899L59.6389 21.5089L56.4749 22.7373Z" fill="#FEDE9B"/>
<path d="M56.47 22.7246L56.4629 22.7056L59.6269 21.4772L59.634 21.4962L56.47 22.7246Z" fill="#FEDD9A"/>
<path d="M56.4651 22.7119L56.458 22.6929L59.6222 21.4645L59.6293 21.4835L56.4651 22.7119Z" fill="#FEDD98"/>
<path d="M56.4602 22.6992L56.4531 22.68L59.6171 21.4518L59.6242 21.4706L56.4602 22.6992Z" fill="#FEDD96"/>
<path d="M56.4559 22.6864L56.4487 22.6674L59.6127 21.439L59.6198 21.458L56.4559 22.6864Z" fill="#FDDD95"/>
<path d="M56.451 22.6737L56.4438 22.6547L59.6078 21.4263L59.6149 21.4453L56.451 22.6737Z" fill="#FDDD94"/>
<path d="M56.4461 22.661L56.439 22.642L59.6031 21.4136L59.6102 21.4326L56.4461 22.661Z" fill="#FDDC93"/>
<path d="M56.4412 22.6484L56.4341 22.6294L59.5979 21.401L59.605 21.42L56.4412 22.6484Z" fill="#FDDC91"/>
<path d="M56.4368 22.6357L56.4297 22.6166L59.5937 21.3881L59.6008 21.4073L56.4368 22.6357Z" fill="#FDDC8F"/>
<path d="M56.4319 22.623L56.4248 22.6038L59.5888 21.3756L59.5959 21.3945L56.4319 22.623Z" fill="#FDDC8E"/>
<path d="M56.427 22.6101L56.4199 22.5911L59.5841 21.3629L59.5912 21.3818L56.427 22.6101Z" fill="#FDDB8C"/>
<path d="M56.4222 22.5975L56.415 22.5785L59.5788 21.3501L59.586 21.3691L56.4222 22.5975Z" fill="#FDDB8A"/>
<path d="M56.4173 22.5847L56.4102 22.5657L59.5743 21.3373L59.5814 21.3563L56.4173 22.5847Z" fill="#FDDB8A"/>
<path d="M56.4129 22.5721L56.4058 22.5531L59.5697 21.3247L59.5769 21.3437L56.4129 22.5721Z" fill="#FDDA88"/>
<path d="M56.408 22.5594L56.4009 22.5402L59.5649 21.312L59.572 21.331L56.408 22.5594Z" fill="#FCDA87"/>
<path d="M56.4031 22.5467L56.396 22.5275L59.5601 21.2993L59.5673 21.3183L56.4031 22.5467Z" fill="#FCDA85"/>
<path d="M56.3982 22.534L56.3911 22.5148L59.5553 21.2866L59.5624 21.3055L56.3982 22.534Z" fill="#FCD983"/>
<path d="M56.3938 22.5212L56.3867 22.5022L59.5507 21.2738L59.5578 21.2928L56.3938 22.5212Z" fill="#FCD982"/>
<path d="M56.389 22.5085L56.3818 22.4895L59.5458 21.2611L59.5529 21.2801L56.389 22.5085Z" fill="#FCD980"/>
<path d="M56.3841 22.4958L56.377 22.4767L59.5411 21.2482L59.5482 21.2674L56.3841 22.4958Z" fill="#FCD97F"/>
<path d="M56.3792 22.4831L56.3721 22.4639L59.5362 21.2357L59.5433 21.2547L56.3792 22.4831Z" fill="#FCD97D"/>
<path d="M56.3748 22.4704L56.3677 22.4512L59.5316 21.223L59.5388 21.2419L56.3748 22.4704Z" fill="#FCD87B"/>
<path d="M56.3699 22.4576L56.3628 22.4385L59.5268 21.2103L59.5339 21.2292L56.3699 22.4576Z" fill="#FCD87A"/>
<path d="M56.365 22.4449L56.3579 22.4259L59.5219 21.1975L59.529 21.2165L56.365 22.4449Z" fill="#FCD878"/>
<path d="M56.3602 22.4322L56.353 22.4132L59.5172 21.1848L59.5243 21.2038L56.3602 22.4322Z" fill="#FCD776"/>
<path d="M56.3553 22.4196L56.3481 22.4006L59.5123 21.172L59.5194 21.1912L56.3553 22.4196Z" fill="#FCD775"/>
<path d="M56.3509 22.4069L56.3438 22.3879L59.5077 21.1593L59.5148 21.1785L56.3509 22.4069Z" fill="#FCD773"/>
<path d="M56.3455 22.3941L56.3384 22.3749L59.5025 21.1467L59.5096 21.1656L56.3455 22.3941Z" fill="#FCD672"/>
<path d="M56.3411 22.3813L56.334 22.3623L59.498 21.1339L59.5051 21.1529L56.3411 22.3813Z" fill="#FCD670"/>
<path d="M56.3362 22.3686L56.3291 22.3496L59.4933 21.1212L59.5004 21.1402L56.3362 22.3686Z" fill="#FCD66E"/>
<path d="M56.3313 22.3559L56.3242 22.3369L59.4884 21.1085L59.4955 21.1275L56.3313 22.3559Z" fill="#FCD66D"/>
<path d="M56.3269 22.3432L56.3198 22.3242L59.4838 21.0958L59.4909 21.1148L56.3269 22.3432Z" fill="#FCD66B"/>
<path d="M56.3221 22.3307L56.3149 22.3115L59.4791 21.0833L59.486 21.1021L56.3221 22.3307Z" fill="#FCD56A"/>
<path d="M56.3172 22.3177L56.3101 22.2986L59.4742 21.0704L59.4813 21.0893L56.3172 22.3177Z" fill="#FCD568"/>
<path d="M56.3123 22.305L56.3052 22.286L59.4693 21.0576L59.4764 21.0766L56.3123 22.305Z" fill="#FBD466"/>
<path d="M56.3079 22.2923L56.3008 22.2733L59.4647 21.0449L59.4719 21.0639L56.3079 22.2923Z" fill="#FBD465"/>
<path d="M56.303 22.2798L56.2959 22.2607L59.4599 21.0323L59.467 21.0514L56.303 22.2798Z" fill="#FBD463"/>
<path d="M56.2981 22.267L56.291 22.248L59.455 21.0194L59.4621 21.0386L56.2981 22.267Z" fill="#FBD360"/>
<path d="M56.2933 22.2544L56.2861 22.2352L59.4503 21.007L59.4574 21.0258L56.2933 22.2544Z" fill="#FBD35F"/>
<path d="M56.2889 22.2415L56.2817 22.2225L59.4455 20.9943L59.4527 21.0133L56.2889 22.2415Z" fill="#FBD35D"/>
<path d="M56.284 22.2289L56.2769 22.2098L59.4408 20.9814L59.4479 21.0005L56.284 22.2289Z" fill="#FBD35C"/>
<path d="M56.2791 22.2162L56.272 22.1971L59.4359 20.9688L59.4431 20.9878L56.2791 22.2162Z" fill="#FBD35A"/>
<path d="M56.2744 22.2033L56.2671 22.1844L59.4312 20.9561L59.4384 20.9751L56.2744 22.2033Z" fill="#FBD258"/>
<path d="M56.2693 22.1906L56.2622 22.1716L59.4264 20.9434L59.4335 20.9624L56.2693 22.1906Z" fill="#FBD257"/>
<path d="M56.2649 22.1779L56.2578 22.1589L59.4218 20.9307L59.4289 20.9497L56.2649 22.1779Z" fill="#FAD155"/>
<path d="M56.2601 22.1652L56.2529 22.1462L59.4169 20.918L59.424 20.9368L56.2601 22.1652Z" fill="#FAD152"/>
<path d="M56.2552 22.1526L56.248 22.1335L59.412 20.9052L59.4191 20.9242L56.2552 22.1526Z" fill="#FBD151"/>
<path d="M56.2503 22.1399L56.2432 22.1208L59.4073 20.8925L59.4144 20.9115L56.2503 22.1399Z" fill="#FAD04F"/>
<path d="M56.2459 22.1271L56.2388 22.1081L59.4029 20.8795L59.41 20.8987L56.2459 22.1271Z" fill="#FAD04D"/>
<path d="M56.241 22.1145L56.2051 22.0185L59.3691 20.7903L59.405 20.8861L56.241 22.1145Z" fill="#F7CE51"/>
</g>
<path d="M42.1729 1.64258H43.8097C45.7121 1.92699 47.2357 2.91427 48.0716 4.69753C48.8924 6.45126 49.1168 8.21115 48.4811 10.108C48.4776 10.1184 48.4762 10.1294 48.477 10.1404C48.4777 10.1513 48.4806 10.162 48.4854 10.1719C48.4902 10.1817 48.4969 10.1904 48.5051 10.1976C48.5133 10.2048 48.5228 10.2102 48.5331 10.2136C49.334 10.4701 50.2769 10.6319 50.9462 10.9319C52.5523 11.6532 53.5945 12.9452 55.1839 14.3196C55.3642 14.4767 55.378 14.6991 55.2266 14.9866C55.2162 15.0066 55.2103 15.0286 55.2092 15.0512C55.2082 15.0738 55.212 15.0963 55.2205 15.1172L55.4743 15.7407C55.4956 15.7934 55.5704 15.7857 55.5795 15.7299C55.6315 15.4141 56.2017 15.3286 56.249 15.7235C56.2764 15.9583 56.1831 16.2489 55.9677 16.5988C55.9387 16.647 55.9433 16.6905 55.9816 16.7293C56.3252 17.0948 56.6967 17.3684 57.0941 17.5472C57.9499 17.9359 59.1601 18.3743 58.8637 19.5513C58.8058 19.7902 58.7354 20.0258 58.6529 20.257C58.6464 20.275 58.6441 20.2942 58.6463 20.3132C58.6485 20.3322 58.6551 20.3504 58.6655 20.3663C58.6759 20.3822 58.6899 20.3953 58.7062 20.4047C58.7226 20.4141 58.7409 20.4194 58.7597 20.4202C59.8601 20.4779 59.7531 21.4697 59.7331 22.2952C59.7317 22.3466 59.7515 22.3964 59.7866 22.4336C60.1473 22.8053 60.2727 23.2421 60.1626 23.7411C60.0068 24.4469 60.6623 25.0751 60.9603 25.6316V26.8754C60.5278 28.0866 59.449 27.5736 58.5611 28.1036C57.8628 28.5188 57.1384 28.8438 56.3881 29.0753C56.328 29.0937 56.2733 29.1269 56.2288 29.1719C56.1843 29.217 56.1514 29.2724 56.1329 29.3335C55.9326 29.9863 55.7355 30.5959 55.413 31.2426C54.7407 32.589 54.6016 34.153 54.0316 35.445C53.9169 35.7062 53.7995 35.9663 53.6794 36.225H53.0945C53.5405 35.3164 53.8295 34.5784 53.9627 34.0101C54.1721 33.1176 54.3602 32.3029 54.7407 31.4261C55.0269 30.7679 55.2924 30.1006 55.5368 29.4251C55.5567 29.3708 55.5384 29.3474 55.4818 29.3568C54.0423 29.6148 52.5737 29.7501 51.125 29.4719C50.1745 29.2884 49.2254 29.2137 48.3574 28.7503C48.2963 28.7177 48.2322 28.7893 48.2689 28.8483C48.4633 29.1586 48.5725 29.5161 48.5851 29.8838C48.5867 29.9351 48.6034 29.9787 48.6355 30.0175C49.4884 31.0841 50.1592 32.2252 50.4099 33.5856C50.5573 34.3842 50.5968 35.2901 50.5787 36.225H49.9893C49.9969 35.4769 49.9612 34.729 49.8824 33.9851C49.719 32.4243 48.9765 31.3794 48.0762 30.1746C48.0425 30.1295 47.9998 30.1155 47.9462 30.1311C47.3105 30.3222 47.0523 30.0097 46.4763 29.9599C45.6923 29.893 45.1971 29.8356 44.9877 29.7874C43.5086 29.436 42.2677 28.0725 41.2666 26.9019C41.2285 26.8568 41.1858 26.8506 41.1384 26.8863C40.8677 27.0868 40.582 27.3265 40.3131 27.4616C38.768 28.2359 37.1069 27.6482 35.8539 26.5459C35.8065 26.5055 35.7791 26.5164 35.7729 26.5785C35.6963 27.2625 35.6796 27.9064 35.7239 28.511C35.9349 31.4122 39.7598 33.7567 42.0935 31.7355C42.5061 31.3779 42.7842 30.7528 43.2563 30.313C43.3008 30.2726 43.3435 30.2492 43.3862 30.2445C43.4158 30.242 43.4452 30.2508 43.4687 30.2692C43.4922 30.2877 43.5081 30.3144 43.5132 30.3441C43.75 31.6982 43.2764 32.5098 42.6879 33.6851C42.6635 33.7333 42.6711 33.7768 42.7093 33.8141C42.9614 34.0644 42.937 34.764 42.9446 35.0782C42.9477 35.2506 43.0791 35.3952 43.2488 35.4124C44.6081 35.5595 45.8675 35.6251 47.0208 36.225H45.2039C44.8434 36.1649 44.48 36.124 44.1152 36.1026C43.6537 36.0761 43.2181 35.9595 42.7628 35.8725C42.7382 35.8672 42.7126 35.8699 42.6895 35.8803C42.6665 35.8906 42.6472 35.908 42.6345 35.9301C42.5739 36.0298 42.5114 36.1281 42.4473 36.225H41.815L41.8305 36.2051C42.2661 35.6519 42.2539 35.1372 41.7969 34.663C41.7618 34.6273 41.7221 34.6209 41.6776 34.6474C40.4461 35.3734 39.2495 35.4915 37.7716 35.4698C35.2731 35.4325 33.1719 34.3521 31.8315 32.1335C29.8757 28.8934 29.706 25.4155 30.2102 21.7372C30.2179 21.6749 30.2592 21.5443 30.334 21.3454C30.3523 21.2956 30.3402 21.2552 30.2973 21.2258C29.1848 20.4498 28.4544 19.385 28.1045 18.0321V16.6362C28.4695 15.3052 29.2352 14.2993 30.4043 13.6185C30.4257 13.6068 30.4444 13.5904 30.4589 13.5705C30.4734 13.5506 30.4835 13.5278 30.4884 13.5035C30.8612 11.9161 31.5336 9.9214 33.4362 10.0489C33.4898 10.052 33.5234 10.0286 33.5402 9.97738C34.7841 6.19312 40.1069 10.562 41.664 11.6362C42.4434 12.1742 44.3291 12.7028 44.9923 11.7358C45.4156 11.1199 45.2981 10.2013 45.0123 9.58084C43.6384 6.58966 41.0955 6.02374 38.1124 6.04077C37.7136 6.0424 37.376 6.09203 37.1025 6.19004C37.0533 6.20645 37.0119 6.24078 36.9862 6.28641C36.6714 6.83059 35.7592 8.27799 35.0302 7.53944C34.8788 7.38564 34.8637 7.17731 34.9844 6.91301C35.3313 6.15272 35.918 5.73299 36.7419 5.6522C36.7921 5.64749 36.8395 5.62267 36.8731 5.58517C37.3468 5.05983 37.8053 4.44735 38.2745 4.00426C39.3793 2.95937 40.7103 2.01412 42.1729 1.64258ZM56.0881 45.5533C56.8439 47.1306 57.2501 48.8705 57.3065 50.7744C57.3172 51.1289 57.1781 51.3215 56.8863 51.3512C56.8589 51.354 56.8314 51.3467 56.8087 51.3308C56.786 51.3149 56.7696 51.2913 56.7624 51.2643C56.6433 50.8056 56.5179 50.2505 56.3849 49.5991C55.9882 47.6523 54.9283 46.3083 53.5007 45.5533H54.5363C55.1876 46.0431 55.7369 46.6744 56.1267 47.455C56.1374 47.4767 56.1618 47.4862 56.1847 47.4786C56.2061 47.4691 56.22 47.4459 56.2138 47.4224C56.0866 46.8751 55.8446 46.2032 55.5172 45.5533H56.0881ZM49.9015 45.5533C50.8393 46.2302 51.8281 47.1239 52.1228 48.1764C52.4116 49.2089 51.7866 50.2957 50.9708 50.8382C49.5739 51.7662 47.5734 51.2128 46.6337 49.9116C45.6195 48.5061 45.7614 46.7875 46.8866 45.5531H47.6376C46.8013 46.2161 46.433 47.3508 46.5664 48.4128C46.8323 50.5272 49.7405 51.5829 51.1387 49.9629C52.6118 48.2555 50.4015 46.4025 48.8452 45.5533H49.9015ZM37.7887 45.5533C37.2088 47.0994 36.5159 48.622 35.6659 50.3033C35.3357 50.9579 34.2111 52.9713 33.3676 53.2588H33.1139C31.9937 52.7863 32.0366 51.684 32.3176 50.5987C32.8019 48.7401 33.6064 47.1083 34.5549 45.5533H35.1931C34.1292 47.2675 33.2914 48.9774 32.7624 51.0791C32.634 51.586 32.6401 52.0508 32.8968 52.4706C32.9451 52.5503 33.0219 52.608 33.1111 52.6315C33.2002 52.6549 33.2948 52.6424 33.3751 52.5965C33.5432 52.5017 33.696 52.3572 33.8352 52.1659C35.2871 50.1562 36.2942 47.8539 37.2153 45.5533H37.7887ZM54.4243 16.1668C54.1997 15.6255 54.2319 15.1063 54.519 14.6089C54.5496 14.556 54.5421 14.5093 54.4976 14.4674C53.7533 13.7881 53.0076 13.1148 52.2573 12.4447C51.1312 11.4373 49.9987 11.148 48.4597 10.8402C48.4124 10.8308 48.3759 10.8464 48.3497 10.8868C47.6253 11.9643 46.0192 11.3003 46.5174 10.3598C46.8109 9.80637 47.2617 9.63844 47.8684 9.85764C47.9188 9.8763 47.9524 9.86072 47.9708 9.80945C48.631 7.95772 48.1725 5.97863 47.2372 4.30261C46.4733 2.93129 44.6868 2.28313 43.1952 2.14618C41.2972 1.97227 38.9103 3.89991 37.7305 5.33971C37.6617 5.42358 37.7244 5.55111 37.8313 5.54495C39.0204 5.47648 40.2383 5.47648 41.3446 5.78734C43.4413 6.37825 46.5221 8.93105 45.6847 11.5273C45.4523 12.2472 45.6036 13.3932 46.1325 13.85C47.2067 14.7752 48.2642 15.5199 48.6355 16.9952C48.6389 17.0085 48.6461 17.0204 48.6562 17.0294C48.6663 17.0385 48.6789 17.0442 48.6922 17.0459C48.7056 17.0476 48.7192 17.0451 48.7311 17.0389C48.7431 17.0326 48.753 17.0228 48.7594 17.0108C49.5495 15.5837 51.1112 14.3026 52.8228 14.7721C53.2996 14.9025 53.9262 15.6255 53.4264 16.1C53.217 16.2974 52.8838 16.2429 52.5966 16.2894C52.5876 16.291 52.5793 16.2954 52.573 16.3021C52.5666 16.3088 52.5625 16.3174 52.5613 16.3266C52.5601 16.3359 52.5619 16.3452 52.5663 16.3534C52.5707 16.3615 52.5776 16.368 52.5859 16.3719L53.2079 16.6657C53.2297 16.6758 53.2487 16.6914 53.263 16.711C53.2774 16.7305 53.2867 16.7535 53.29 16.7776C53.2933 16.8018 53.2906 16.8265 53.2821 16.8493C53.2736 16.8721 53.2596 16.8924 53.2414 16.9083L52.8917 17.2144C52.8828 17.2222 52.8764 17.2326 52.8734 17.2442C52.8704 17.2558 52.8709 17.268 52.8749 17.2793C52.8788 17.2906 52.886 17.3004 52.8955 17.3074C52.905 17.3144 52.9164 17.3184 52.9282 17.3187C53.266 17.3341 53.5014 17.4959 53.6342 17.8053C53.6588 17.8627 53.6541 17.9296 53.6205 17.9825C53.2827 18.5127 52.8397 18.9946 52.1915 19.0879C51.8753 19.1346 51.4734 19.2279 50.9859 19.3694C50.8178 19.4176 50.6832 19.3335 50.581 19.1176C50.5754 19.1054 50.567 19.0947 50.5566 19.0864C50.5461 19.0782 50.5338 19.0726 50.5208 19.0702C50.5078 19.0677 50.4944 19.0685 50.4817 19.0724C50.469 19.0763 50.4575 19.0832 50.448 19.0926C49.9788 19.5496 49.5495 20.1063 49.0023 19.2388C48.9565 19.1672 48.8465 19.2029 48.8527 19.2884L48.9993 21.5287C49.0005 21.548 49.0065 21.5667 49.0166 21.583C49.0267 21.5994 49.0406 21.613 49.0571 21.6225C49.0736 21.6321 49.0922 21.6373 49.1112 21.6378C49.1302 21.6383 49.149 21.634 49.1659 21.6253C49.311 21.5521 49.4852 21.5008 49.69 21.4713C52.1184 21.109 56.0503 21.3517 55.9143 24.9041C55.9128 24.9585 55.9326 25.0038 55.9769 25.0364L57.522 26.1852C57.5448 26.2024 57.5721 26.2122 57.6005 26.2133C57.6288 26.2144 57.6568 26.2068 57.6808 26.1914C58.3432 25.7632 59.0813 25.4706 59.8539 25.33C59.9014 25.3224 59.9456 25.3286 59.9869 25.3487C60.0266 25.369 60.0663 25.3798 60.1076 25.3813C60.1717 25.3845 60.1872 25.3581 60.1535 25.3036L59.5421 24.2962C59.5335 24.2821 59.5207 24.2713 59.5055 24.2654C59.4903 24.2595 59.4736 24.2589 59.458 24.2636C58.5702 24.5418 57.6703 24.6009 56.7579 24.4393C56.7362 24.4365 56.7156 24.4278 56.6984 24.4141C56.6811 24.4004 56.6679 24.3822 56.66 24.3614C56.1603 23.2125 57.499 21.8086 58.2754 21.0872C58.2951 21.0689 58.3095 21.0455 58.3171 21.0195C58.3248 20.9934 58.3253 20.9658 58.3187 20.9395C58.3122 20.9132 58.2987 20.8892 58.2798 20.87C58.2608 20.8509 58.2372 20.8373 58.2113 20.8307L57.4944 20.6442C57.444 20.6302 57.4103 20.6489 57.395 20.7003C57.2255 21.2769 56.6846 21.563 56.191 21.1151C55.7722 20.7344 55.3856 19.4145 56.1162 19.1004C56.562 18.9104 56.994 18.6886 57.4089 18.4365C57.4192 18.43 57.4275 18.4209 57.433 18.4099C57.4384 18.399 57.4408 18.3867 57.4399 18.3745C57.4389 18.3623 57.4346 18.3506 57.4275 18.3407C57.4205 18.3307 57.4108 18.323 57.3997 18.3183C56.6805 18.0163 56.0291 17.5689 55.485 17.0032C55.4749 16.9926 55.4629 16.9841 55.4497 16.9782L54.947 16.7621C54.8981 16.742 54.8767 16.7046 54.8829 16.6501C54.8997 16.4869 54.9346 16.3284 54.9882 16.1775C55.0387 16.0329 55.0295 15.9241 54.9608 15.8511C54.953 15.843 54.9438 15.8366 54.9335 15.8324C54.9233 15.8281 54.9123 15.8261 54.9012 15.8264C54.8902 15.8267 54.8793 15.8293 54.8693 15.8341C54.8593 15.8388 54.8503 15.8457 54.8431 15.8541L54.5603 16.1884C54.5038 16.2554 54.4579 16.2476 54.4243 16.1668ZM35.5777 7.04217C35.6246 7.08873 35.7882 6.99381 35.9454 6.83204C36.103 6.67045 36.1917 6.50107 36.1454 6.45434C36.0984 6.40778 35.9349 6.50252 35.7777 6.66447C35.6201 6.82588 35.5314 6.99544 35.5777 7.04217ZM34.2601 12.6965C33.8719 12.1431 33.6119 11.5164 33.4791 10.8185C33.4713 10.7783 33.4505 10.742 33.42 10.7152C33.3896 10.6885 33.3512 10.6728 33.311 10.6708C31.8164 10.5915 31.4663 12.2519 31.0616 13.3635C31.0462 13.4069 31.0783 13.4522 31.1242 13.4522C32.5957 13.4443 35.2686 14.444 34.9598 16.4123C34.7918 17.4834 34.098 17.9327 32.8769 17.7602C31.3701 17.5488 30.5372 15.7329 30.4837 14.3709C30.4829 14.35 30.4765 14.3297 30.4652 14.3122C30.4539 14.2948 30.4381 14.2808 30.4195 14.2719C30.401 14.2629 30.3803 14.2593 30.3599 14.2614C30.3394 14.2635 30.32 14.2713 30.3035 14.2839C27.9868 16.0594 28.1533 18.9107 30.3997 20.6349C30.4162 20.6475 30.435 20.6566 30.455 20.6615C30.4751 20.6665 30.4959 20.6672 30.5162 20.6637C30.5365 20.6602 30.5559 20.6526 30.5732 20.6412C30.5906 20.6298 30.6054 20.615 30.6169 20.5976C31.1639 19.7643 31.8865 18.777 32.9381 19.6958C32.9762 19.7284 32.9976 19.7766 32.9976 19.8281C33.0053 20.8463 31.7859 21.3314 30.9713 21.4092C30.9314 21.4125 30.8939 21.4298 30.8652 21.4582C30.8365 21.4865 30.8184 21.5241 30.8139 21.5646C30.6684 22.7566 30.5807 23.9551 30.5511 25.1559C30.4503 29.2045 32.3299 34.4485 37.0076 34.834C37.7275 34.893 38.4839 34.9816 39.1334 34.8992C40.9901 34.6646 42.4144 33.8079 42.908 31.8739C42.9123 31.8565 42.9112 31.8381 42.9048 31.8213C42.8984 31.8046 42.8869 31.7903 42.8721 31.7805C42.8572 31.7707 42.8397 31.7659 42.8221 31.7667C42.8044 31.7675 42.7874 31.774 42.7735 31.7852C42.4357 32.0605 42.1103 32.4304 41.7586 32.6326C39.1945 34.1126 35.7193 31.7169 35.218 29.0023C35.0485 28.0866 35.0592 27.1008 35.2471 26.0452C35.252 26.0211 35.2512 25.9961 35.2449 25.9724C35.2386 25.9486 35.2268 25.9267 35.2106 25.9084C34.1912 24.7128 33.5799 23.3339 33.3765 21.7727C33.2407 20.7329 33.4362 19.458 34.4709 18.9931C35.2884 18.6277 35.8202 19.3507 35.999 20.069C36.4315 21.8135 36.1947 23.3618 35.9073 25.2072C35.7898 25.9566 36.2161 26.207 36.8136 26.605C37.9246 27.3435 39.0951 27.4196 40.3284 26.835C41.2422 26.4028 40.8006 25.3595 41.8918 24.8529C41.9375 24.8311 41.9726 24.7922 41.991 24.7456C42.2951 23.9263 42.8056 23.312 43.5239 22.9062C43.9929 22.6404 44.6653 22.5767 45.2048 22.3482C45.4553 22.2425 45.4662 21.8849 45.2231 21.762C42.4632 20.3659 37.6418 22.9435 36.1917 18.9745C35.7469 17.7602 35.8783 16.4153 37.0779 15.753C37.4431 15.5525 37.7426 15.5804 37.975 15.84C38.189 16.078 38.1797 16.5148 38.2287 16.8429C38.2329 16.8676 38.2433 16.8909 38.2588 16.9104C38.2742 16.93 38.2943 16.9453 38.3172 16.9548C40.0839 17.6653 43.5878 17.286 44.9617 18.8687C45.2324 19.1812 45.3241 19.1346 45.2338 18.7288C45.0306 17.8098 44.7311 16.9425 44.3382 16.1279C43.7331 14.8746 44.1519 13.7133 44.9222 12.7012C44.9633 12.6468 44.9083 12.5736 44.8456 12.5985C41.2698 14.0586 38.8337 8.53614 35.0669 9.11763C34.5213 9.20314 34.2095 9.52486 34.1317 10.0846C34.1255 10.1328 34.1454 10.1638 34.1928 10.1763C35.2869 10.4562 35.97 10.8744 36.8318 11.7186C38.027 12.8878 39.0141 13.3713 40.7043 13.2359C41.1154 13.2019 42.1346 13.0512 42.4281 13.3729C42.5275 13.4816 42.5442 13.6464 42.4664 13.7723C40.7349 16.5833 35.7624 14.8357 34.2601 12.6965ZM47.8043 10.4049C47.5415 10.2743 47.3061 10.31 47.0967 10.5136C47.0752 10.5345 47.059 10.5605 47.0496 10.5892C47.0402 10.6179 47.0378 10.6485 47.0426 10.6783C47.0474 10.7082 47.0593 10.7364 47.0773 10.7606C47.0952 10.7847 47.1187 10.804 47.1456 10.8168C47.4849 10.977 47.714 10.8636 47.8347 10.4763C47.844 10.4437 47.8333 10.4205 47.8043 10.4049ZM39.0494 13.7164C37.9093 13.4319 37.1009 12.6872 36.2008 11.8398C35.5711 11.2491 34.908 10.9833 34.1377 10.7018C34.0811 10.6817 34.0523 10.7018 34.0491 10.7625C34.0094 11.6331 34.9782 12.8209 35.6415 13.3122C36.8501 14.2031 38.2088 14.6509 39.7201 14.6554C40.5269 14.6585 41.1888 14.343 41.8426 13.9029C41.9115 13.8564 41.8749 13.749 41.7924 13.7537C40.8893 13.8098 39.8761 13.9232 39.0494 13.7164ZM45.4355 20.8758C45.3424 20.8432 45.2812 20.7795 45.2521 20.6845C45.1268 20.2866 45.0581 19.8186 44.7968 19.4908C44.352 18.931 43.779 18.5779 43.0791 18.4317C42.0415 18.2158 40.5773 17.9716 38.6872 17.6995C37.8113 17.5736 37.7212 17.0294 37.5364 16.3083C37.5227 16.2538 37.489 16.2351 37.4385 16.2507C36.9205 16.4014 36.618 16.742 36.5567 17.3079C36.1183 21.3657 40.5912 20.7592 42.9277 20.7344C43.7561 20.7249 45.8159 20.9007 45.9858 21.9812C46.1079 22.7602 44.9436 23.0959 44.2757 23.2328C43.539 23.3835 43.0025 23.8484 42.6665 24.6273C42.6451 24.6786 42.6605 24.7067 42.7139 24.7143C43.5472 24.8348 44.3458 25.1343 45.0566 25.5929C45.0916 25.6153 45.1313 25.6292 45.1724 25.6335C45.2136 25.6378 45.2551 25.6324 45.2939 25.6176C45.3326 25.6029 45.3675 25.5792 45.3958 25.5485C45.4241 25.5178 45.445 25.4808 45.4569 25.4405C45.8681 24.0491 46.3006 23.1192 47.6239 22.4243C47.6759 22.3964 47.6926 22.3544 47.6743 22.2968C47.4069 21.4682 47.3932 20.6862 47.6346 19.9509C47.7997 19.4455 48.2398 18.8469 48.2566 18.2142C48.2826 17.2052 47.9432 16.3206 47.2388 15.5603C46.7206 15.0024 45.625 14.3413 45.1864 13.4039C45.1635 13.3557 45.136 13.3542 45.107 13.3992C44.6515 14.1082 44.4331 14.9975 44.7968 15.7982C45.5639 17.482 45.9414 18.7785 45.8374 20.6349C45.8314 20.7639 45.8054 20.8447 45.7609 20.8789C45.6937 20.9302 45.5853 20.9287 45.4355 20.8758ZM34.3578 15.9039C34.0338 14.5761 32.3605 14.049 31.2113 13.9745C31.1502 13.9698 31.1089 13.9979 31.089 14.0569C31.034 14.2124 31.0293 14.4051 31.0753 14.6352C31.3397 15.9646 31.8883 17.3483 33.4561 17.2207C34.2554 17.1555 34.5548 16.7173 34.3578 15.9039ZM52.9403 15.4188C51.6385 14.5948 49.8169 16.2103 49.2437 17.2876C49.2393 17.2954 49.2423 17.3046 49.25 17.311C49.256 17.3155 49.2667 17.314 49.2728 17.3079C50.2509 16.246 51.4704 15.7391 52.9314 15.7857C52.9425 15.7861 52.9536 15.7841 52.964 15.78C52.9744 15.7758 52.9838 15.7695 52.9916 15.7615C52.9995 15.7535 53.0057 15.7439 53.0097 15.7333C53.0138 15.7228 53.0157 15.7115 53.0153 15.7002L53.0092 15.54C53.0084 15.5156 53.0017 15.4917 52.9898 15.4706C52.9778 15.4494 52.9608 15.4316 52.9405 15.4186L52.9403 15.4188ZM49.6305 19.0708C49.65 19.0877 49.673 19.0999 49.6977 19.1066C49.7225 19.1133 49.7484 19.1143 49.7735 19.1095C49.7987 19.1047 49.8225 19.0943 49.8432 19.079C49.8639 19.0637 49.8811 19.0439 49.8933 19.021C50.4417 18.0011 50.8345 17.2689 51.892 16.4885C51.9807 16.4233 51.9716 16.4028 51.8646 16.4262C51.227 16.5699 50.6232 16.8393 50.0874 17.2191C49.557 17.5954 48.9932 18.5252 49.6305 19.0708ZM52.5642 17.9086C52.4973 17.8318 52.3368 17.8658 52.2031 17.985C52.0694 18.1039 52.0158 18.2624 52.082 18.3395C52.1488 18.4163 52.3092 18.3821 52.4431 18.2629C52.5767 18.1443 52.6301 17.9857 52.5642 17.9086ZM51.3144 18.6759C51.4398 18.6216 51.5482 18.5455 51.6385 18.4442C51.6485 18.4331 51.6543 18.4187 51.6549 18.4036C51.6554 18.3885 51.6507 18.3737 51.6415 18.3618C51.6322 18.3497 51.6189 18.3413 51.6041 18.3382C51.5892 18.3351 51.5738 18.3374 51.5605 18.3448C51.443 18.41 51.3434 18.4988 51.2624 18.6091C51.1999 18.696 51.2167 18.7176 51.3144 18.6759ZM58.118 18.8672C58.0789 18.8152 58.0221 18.7799 57.9588 18.7681C57.8956 18.7563 57.8302 18.7689 57.7755 18.8035L56.3514 19.6958C56.3269 19.7109 56.3089 19.7347 56.3008 19.7627C56.1817 20.1592 56.2825 20.4918 56.6019 20.7639C56.6165 20.7764 56.6336 20.7853 56.6521 20.79C56.6705 20.7946 56.6898 20.795 56.7084 20.7909C56.727 20.7869 56.7444 20.7785 56.7594 20.7666C56.7743 20.7546 56.7864 20.7393 56.7946 20.7219L57.2255 19.8047C57.2367 19.7775 57.2553 19.7541 57.2791 19.7373C57.3029 19.7205 57.331 19.7109 57.3599 19.7098L57.9086 19.6616C57.9678 19.6569 58.0247 19.6357 58.0729 19.6003C58.1212 19.565 58.1589 19.5168 58.1821 19.461C58.2738 19.2402 58.2524 19.0428 58.118 18.8672ZM35.0669 19.5513C34.1377 19.1951 33.8779 20.5291 33.9177 21.2304C33.9956 22.5799 34.4096 23.8578 35.1632 25.0643C35.2517 25.2074 35.3128 25.1965 35.348 25.0317C35.5268 24.1717 36.0984 19.9445 35.0669 19.5513ZM32.2962 20.3255C32.3506 20.2873 32.3893 20.23 32.4048 20.1646C32.4203 20.0992 32.4116 20.0303 32.3803 19.971C32.3485 19.912 32.2966 19.8669 32.2343 19.8442C32.1721 19.8216 32.1038 19.823 32.0425 19.8482C31.6499 20.0083 31.3748 20.2927 31.2174 20.7001C31.1914 20.7653 31.2127 20.7903 31.2815 20.7762C31.6458 20.696 31.9907 20.5428 32.2962 20.3255ZM48.1633 20.1592C47.9692 20.7094 47.9478 21.2816 48.0976 21.8754C48.1123 21.9353 48.1496 21.9869 48.2013 22.0192C48.253 22.0515 48.3151 22.0618 48.3743 22.0481C48.4337 22.0352 48.4858 21.9991 48.5194 21.9477C48.5531 21.8963 48.5657 21.8335 48.5545 21.7727L48.2673 20.1684C48.2582 20.1125 48.1818 20.1063 48.1633 20.1592ZM58.9937 21.2334L59.0608 21.2008C59.0772 21.1931 59.0902 21.1793 59.097 21.1623C59.1038 21.1452 59.104 21.1262 59.0975 21.109C59.0907 21.0918 59.0779 21.0778 59.0615 21.0697C59.0452 21.0617 59.0264 21.0602 59.009 21.0655L58.8653 21.1121C58.8377 21.1199 58.8347 21.1356 58.8546 21.1555L58.9157 21.2195C58.937 21.2396 58.9677 21.2459 58.9937 21.2334ZM58.7643 21.7387C58.2554 21.5552 57.5784 22.6669 57.3279 23.0368C57.3249 23.0415 57.3263 23.0446 57.3309 23.0462C57.3446 23.0509 57.3569 23.054 57.3706 23.0587C57.3808 23.0627 57.392 23.0632 57.4025 23.0601C57.413 23.057 57.4222 23.0505 57.4287 23.0415C57.7802 22.6078 58.2264 22.3263 58.7673 22.199C58.853 22.1787 58.911 22.1492 58.9417 22.1088C59.0058 22.0218 58.9814 21.9205 58.8683 21.8055C58.8395 21.775 58.8038 21.7521 58.7643 21.7387ZM55.4513 24.5713C55.2343 21.7526 51.4214 21.6454 49.4975 22.0698C49.3905 22.0948 49.3447 22.2252 49.4149 22.3108C49.8657 22.8658 50.4526 23.2234 51.1784 23.3835C52.621 23.7054 54.0224 23.8455 55.2923 24.6679C55.3085 24.6783 55.3273 24.684 55.3464 24.6842C55.3656 24.6845 55.3845 24.6793 55.401 24.6693C55.4174 24.6593 55.4308 24.6449 55.4397 24.6276C55.4486 24.6103 55.4526 24.5908 55.4513 24.5713ZM55.1059 25.1559C54.3066 24.7206 53.6525 24.492 52.6883 24.3023C51.1753 24.0054 49.7587 23.7957 48.8173 22.3995C48.7852 22.3513 48.7471 22.3452 48.6998 22.3778L48.4353 22.5611C48.3819 22.5984 48.368 22.6466 48.3972 22.7073C49.068 24.1159 49.985 25.5974 51.6736 25.784C52.8335 25.9131 54.1905 25.9814 55.1135 25.2648C55.1502 25.2353 55.1472 25.1778 55.1059 25.1561V25.1559ZM56.3498 28.3648C56.6048 28.2733 56.8645 28.196 57.1278 28.1332C57.9789 27.9295 58.5321 27.3279 59.3726 27.0977C59.6549 27.0213 59.9366 26.9426 60.2177 26.8615C60.259 26.8506 60.2924 26.818 60.3063 26.776C60.395 26.4992 60.3781 26.2349 60.2574 25.9847C60.244 25.9564 60.2232 25.9325 60.1973 25.9155C60.1714 25.8984 60.1414 25.889 60.1106 25.8881C59.2365 25.8758 58.3899 26.3903 57.6594 26.8055C57.6211 26.8277 57.5772 26.8379 57.5332 26.8348C57.4892 26.8318 57.447 26.8157 57.4119 26.7885L55.8302 25.5896C55.7965 25.5639 55.7555 25.55 55.7133 25.55C55.6712 25.55 55.6302 25.5639 55.5964 25.5896C54.5129 26.4247 53.4585 26.476 52.1458 26.4167C49.852 26.3128 48.9519 24.9648 47.9067 22.9794C47.8837 22.9359 47.8515 22.9265 47.8105 22.9513C47.2585 23.2669 46.8796 23.5763 46.6734 23.8781C46.247 24.5014 46.2226 25.4202 45.6051 26.0733C45.567 26.1151 45.5686 26.1524 45.6129 26.1883C46.9622 27.2595 48.3987 28.4411 49.6519 28.6166C50.4006 28.7224 51.2304 28.9324 51.8997 28.9884C52.5737 29.0443 55.8272 29.0458 56.2351 28.452C56.2643 28.41 56.3024 28.3819 56.3498 28.3648ZM59.6338 23.4877L59.527 23.1145C59.5233 23.1013 59.5171 23.089 59.5087 23.0783C59.5003 23.0676 59.4899 23.0588 59.478 23.0522C59.4662 23.0457 59.4532 23.0417 59.4398 23.0404C59.4264 23.0391 59.4128 23.0405 59.4 23.0446L59.2611 23.085C58.3868 23.3448 57.7161 23.6804 57.7604 23.8344L57.7634 23.85C57.8078 24.004 58.5519 23.9185 59.4246 23.6587L59.5652 23.6169C59.6187 23.6013 59.6507 23.5422 59.6338 23.4877ZM46.9453 27.9234C46.2639 27.362 43.2641 24.5793 42.4434 25.6626C41.965 26.2908 43.3113 28.0259 43.932 28.0585C44.6699 28.0975 45.4049 28.0788 46.14 27.9995C46.3723 27.9746 46.6811 28.0632 46.9179 28.0275C47.0034 28.0134 47.0126 27.9794 46.9453 27.9234ZM41.7068 26.3888C41.7267 26.5193 41.7801 26.6392 41.8656 26.7495C41.8717 26.7571 41.8802 26.7624 41.8897 26.7644C41.8992 26.7663 41.909 26.7649 41.9176 26.7604C41.9258 26.7555 41.9321 26.7479 41.9354 26.7388C41.9388 26.7297 41.939 26.7198 41.9359 26.7106L41.8198 26.3593C41.8154 26.3451 41.8058 26.3332 41.7931 26.326C41.7803 26.3187 41.7653 26.3167 41.7511 26.3204C41.7366 26.324 41.7239 26.3331 41.7157 26.3457C41.7074 26.3584 41.7044 26.3738 41.7068 26.3888ZM44.0663 28.8219C44.731 29.1967 45.4462 29.3692 46.2119 29.3396C46.2384 29.3394 46.2645 29.3332 46.2883 29.3214C46.3121 29.3096 46.3329 29.2925 46.3494 29.2713L46.8752 28.6261C46.9362 28.55 46.9179 28.5156 46.8218 28.5235L44.0846 28.7333C44.0388 28.7364 44.0265 28.7985 44.0663 28.8221V28.8219ZM47.682 29.2574L47.5627 29.5355C47.5338 29.6056 47.552 29.6226 47.6179 29.5883C47.7722 29.5106 47.8317 29.4036 47.7966 29.2666C47.7676 29.15 47.7293 29.1471 47.682 29.2574Z" fill="#9C9C9C"/>
<path d="M23.1825 39.0908C23.3308 38.9821 23.4738 38.9821 23.6116 39.0908C23.7493 39.1995 23.7546 39.3172 23.6275 39.4438C23.5851 39.4982 23.5215 39.5569 23.4368 39.6203C23.352 39.6837 23.1983 39.8058 22.9759 39.9868C22.7529 40.1682 22.5194 40.3359 22.2767 40.4891C22.0331 40.6431 21.747 40.8148 21.4184 41.0048C21.0893 41.1953 20.7436 41.3543 20.3857 41.48C20.0207 41.6081 19.6494 41.7169 19.2733 41.8059C18.8919 41.8965 18.4947 41.937 18.0814 41.928C17.6784 41.9204 17.278 41.8611 16.8896 41.7515C15.9785 41.4619 15.2159 41.0275 14.6014 40.4483C13.6055 41.9325 12.5991 42.9551 11.5822 43.5163C11.137 43.7515 10.7346 43.8692 10.3744 43.8692L10.3266 43.8556L10.2791 43.842C9.45272 43.842 8.8913 43.5435 8.59465 42.9461C8.40394 42.566 8.32969 42.1135 8.37207 41.5887C6.65592 44.2855 5.17267 45.8331 3.92268 46.2313C3.75316 46.2856 3.58365 46.3128 3.41413 46.3128H3.31869C2.5135 46.3128 1.99445 46.0501 1.76137 45.5253C1.6556 45.29 1.60254 45.0094 1.60254 44.6837C1.60254 44.358 1.63441 44.0185 1.69798 43.6656C1.76137 43.3127 1.85681 42.9279 1.98395 42.5117C2.10615 42.11 2.23862 41.7117 2.3812 41.3171C2.53064 40.9083 2.69498 40.5053 2.8739 40.1089C3.04268 39.7304 3.21744 39.3548 3.39811 38.9821C3.56422 38.6426 3.73913 38.3077 3.92268 37.9776C4.06826 37.7166 4.21131 37.4542 4.3518 37.1903C4.44707 37.0092 4.54767 36.8284 4.65362 36.6474C4.75956 36.4663 4.92908 36.3396 5.16216 36.2672C5.39524 36.1947 5.62298 36.2038 5.84538 36.2943C6.06796 36.3849 6.21628 36.5298 6.29053 36.7287C6.36443 36.928 6.34858 37.1179 6.24264 37.299C5.11978 39.2536 4.22449 41.1226 3.55712 42.9053C2.88974 44.6882 2.79964 45.661 3.287 45.824C3.43532 45.824 3.58365 45.8059 3.73197 45.7697C4.43122 45.5344 5.25226 44.8331 6.19509 43.6656C7.13793 42.4981 8.02254 41.1452 8.84874 39.6067C8.9335 39.3895 9.09251 39.0546 9.32559 38.6022C9.41035 38.403 9.56383 38.2673 9.78641 38.1948C10.009 38.1223 10.2366 38.1223 10.4696 38.1948C10.7029 38.2673 10.8617 38.4031 10.9465 38.6022C11.0312 38.8013 11.0312 38.9913 10.9465 39.1723C10.7795 39.5283 10.6258 39.8906 10.4857 40.2583C10.348 40.6203 10.2049 41.0456 10.0565 41.5343C9.90821 42.0229 9.86066 42.4347 9.91355 42.7698C9.96643 43.1044 10.1413 43.2991 10.4379 43.3533C10.671 43.3352 10.9465 43.2446 11.2641 43.0817C12.2388 42.5569 13.2136 41.5343 14.1883 40.0139C13.2771 38.946 12.864 37.7604 12.9486 36.4574C12.991 35.8237 13.1605 35.2944 13.4571 34.869C13.7538 34.4437 14.1459 34.1857 14.6331 34.0952C15.0568 34.0048 15.4383 34.077 15.7773 34.3125C16.2646 34.6926 16.4553 35.2989 16.3494 36.1315C16.2223 37.29 15.7351 38.566 14.8875 39.9596C15.4806 40.5568 16.2116 40.9913 17.0803 41.2628C17.4617 41.4077 17.8748 41.4574 18.3198 41.4121C18.765 41.3668 19.1674 41.3036 19.5276 41.222C19.8878 41.1405 20.2691 40.9958 20.6717 40.7876C21.0742 40.5795 21.4081 40.394 21.6729 40.2311C21.9458 40.0627 22.2109 39.8814 22.4674 39.688C22.7324 39.4891 22.907 39.3533 22.9918 39.2808C23.0765 39.2084 23.1401 39.1451 23.1823 39.0908H23.1825ZM14.5059 39.5252C15.2264 38.2763 15.6501 37.1269 15.7773 36.0771C15.862 35.4074 15.7349 34.946 15.3959 34.6926C15.2687 34.602 15.1206 34.5567 14.9509 34.5567C14.8873 34.5567 14.8238 34.5658 14.7604 34.5839C14.4212 34.6382 14.1405 34.8375 13.9181 35.1812C13.6956 35.5254 13.5631 35.9596 13.5207 36.4844C13.4571 37.5704 13.7857 38.5839 14.5059 39.5252ZM38.4696 39.0908C38.5967 38.964 38.7344 38.9596 38.8827 39.0772C39.031 39.1949 39.0417 39.317 38.9147 39.4438C37.7068 40.548 36.2025 41.4483 34.4014 42.1452C32.6005 42.8421 30.9584 43.1633 29.4754 43.1089C28.7549 43.0727 28.1299 42.937 27.6002 42.7017C26.7102 43.5705 25.7993 44.0955 24.867 44.2764C24.6762 44.3127 24.4855 44.3308 24.2948 44.3308C24.2101 44.3308 24.1146 44.3217 24.0087 44.3036C23.2884 44.2674 22.7322 44.023 22.3403 43.5705C21.9483 43.1182 21.7735 42.6022 21.8159 42.0229C21.9006 41.0094 22.3349 39.9868 23.1189 38.9551C23.9029 37.9234 24.8034 37.1631 25.8205 36.6744C27.0493 36.0954 28.0981 36.0411 28.9668 36.5115C29.1787 36.6383 29.3112 36.8012 29.3639 37.0003C29.417 37.1996 29.3799 37.3894 29.2528 37.5704L29.1892 37.6247C29.2952 37.6791 29.3799 37.7425 29.4435 37.8148C29.7401 38.1406 29.7879 38.6745 29.5865 39.4167C29.3853 40.1587 28.9775 40.9552 28.363 41.8059C28.2359 41.9869 28.0981 42.1497 27.9499 42.2945C28.3947 42.4756 28.9137 42.5751 29.507 42.5932C30.9055 42.6656 32.4629 42.3667 34.179 41.6972C35.8952 41.0275 37.3254 40.1587 38.4696 39.0908ZM24.7398 43.7877C25.5236 43.6428 26.3076 43.1904 27.0916 42.4303C26.8866 42.3095 26.7038 42.1533 26.5514 41.9687C25.9581 41.299 25.8522 40.4574 26.2336 39.4438C26.5302 38.6292 27.0493 38.0591 27.7909 37.7332C27.4942 37.697 27.1235 37.7785 26.6785 37.9778C25.9157 38.3578 25.2272 38.9551 24.6127 39.7694C24.422 40.023 24.2259 40.3487 24.0247 40.7469C23.8235 41.1452 23.6433 41.5887 23.4843 42.0773C23.3255 42.566 23.3255 42.9778 23.4843 43.3127C23.6433 43.6475 23.9877 43.8149 24.5172 43.8149C24.6232 43.7968 24.6974 43.7877 24.7398 43.7877ZM27.4731 42.0501C27.6002 41.8872 27.7273 41.7153 27.8545 41.5343C28.4054 40.7922 28.7815 40.0772 28.9827 39.3895C29.1839 38.7017 29.1785 38.2763 28.9666 38.1135C28.9032 38.041 28.8078 38.0048 28.6807 38.0048C28.5747 38.0048 28.4583 38.0229 28.3311 38.0591C27.5897 38.2763 27.0705 38.7921 26.7738 39.6067C26.4772 40.4574 26.5619 41.1452 27.0281 41.67C27.1582 41.8173 27.308 41.9452 27.4731 42.0501ZM62.4649 39.0636C62.6133 38.9549 62.7562 38.964 62.8941 39.0908C63.0317 39.2176 63.0264 39.3353 62.878 39.4438C62.3909 39.8239 61.8134 40.2493 61.146 40.7199C60.4787 41.1905 59.5198 41.8285 58.2698 42.6339C57.0198 43.4393 55.7748 44.1091 54.5353 44.6429C53.2959 45.1769 52.2524 45.444 51.4048 45.444C51.1294 45.444 50.8646 45.4077 50.6103 45.3353C48.873 44.9733 48.8199 43.3444 50.4513 40.4483C51.6591 38.2763 52.0722 37.1179 51.6908 36.9731C51.2035 36.9007 50.5095 37.2492 49.6093 38.0184C48.7086 38.7877 47.8452 39.679 47.019 40.6927C46.1913 41.708 45.4066 42.7587 44.667 43.842C44.6246 43.9145 44.6034 43.9688 44.6034 44.0051C44.4551 44.3127 44.1796 44.4665 43.7772 44.4665C43.6713 44.4665 43.5653 44.4484 43.4594 44.4121C43.2261 44.3397 43.0621 44.2085 42.9667 44.0185C42.8714 43.8285 42.8661 43.6339 42.9507 43.4348C43.4382 42.385 43.7772 41.367 43.9678 40.3806C44.1586 39.394 44.0844 38.8375 43.7454 38.7107C43.1946 38.7107 42.4477 39.0455 41.5048 39.7152C40.562 40.3849 39.7409 41.0728 39.0417 41.7785C38.3424 42.4845 37.728 43.1451 37.1982 43.7607C37.177 43.7788 37.1453 43.7969 37.103 43.815C36.9334 44.0321 36.7005 44.1406 36.4037 44.1406C36.2342 44.1406 36.0859 44.1045 35.9587 44.0321C35.7468 43.9415 35.6092 43.7922 35.5456 43.5841C35.4821 43.3759 35.5139 43.1814 35.6409 43.0004C36.9546 41.0456 38.2577 39.1904 39.5502 37.4347C39.6774 37.2535 39.8574 37.1405 40.0905 37.0954C40.3171 37.0492 40.5524 37.0826 40.7578 37.1903C40.9697 37.299 41.1022 37.4573 41.1551 37.6655C41.2082 37.8736 41.1711 38.0591 41.0438 38.222C40.6414 38.7832 39.995 39.7062 39.1053 40.9913C41.0333 39.1814 42.5588 38.2582 43.6818 38.222H43.7772C44.2432 38.2039 44.6141 38.3126 44.8896 38.5479C45.165 38.7832 45.3346 39.0998 45.3981 39.498C45.4617 39.8962 45.4775 40.3036 45.4458 40.7199C45.414 41.1362 45.3451 41.5887 45.2391 42.0773C45.7449 41.4016 46.2695 40.7407 46.8123 40.0955C47.3315 39.4799 47.9088 38.8555 48.5445 38.222C49.1801 37.5885 49.8051 37.1179 50.4194 36.8103C51.0341 36.5025 51.5637 36.403 52.0086 36.5115C52.03 36.5297 52.051 36.5387 52.0722 36.5387H52.1039C53.3541 36.8825 53.3329 38.403 52.0405 41.0999C51.9981 41.1905 51.9187 41.3488 51.8021 41.5749C51.6856 41.8014 51.5849 42.005 51.5001 42.1859L51.1824 42.8647C51.0765 43.0885 50.9758 43.3148 50.8805 43.5435C50.8004 43.7402 50.7261 43.9393 50.6579 44.1406C50.5838 44.358 50.5573 44.5072 50.5785 44.5887C50.5998 44.6703 50.6315 44.7471 50.6739 44.8195C51.1399 44.9824 51.7862 44.9552 52.6125 44.738C53.439 44.5206 54.2916 44.1904 55.171 43.7471C56.0503 43.3037 56.9826 42.7834 57.9678 42.1859C58.953 41.5887 59.8059 41.032 60.5262 40.5161C61.2466 40.0003 61.8928 39.5161 62.4649 39.0636ZM75.4319 39.0908C75.559 38.9821 75.6968 38.9821 75.8452 39.0908C75.9935 39.1995 76.004 39.3172 75.8769 39.4438C75.2202 40.023 74.8174 40.3849 74.6693 40.5299C73.4615 41.5796 71.8618 42.6158 69.8701 43.6384C67.8785 44.661 66.1941 45.1724 64.8168 45.1724C64.6049 45.1724 64.393 45.1543 64.1811 45.1181C64.0328 45.1 63.8846 45.0637 63.7361 45.0094C62.8675 44.7924 62.2107 44.3036 61.7657 43.5435C61.4692 43.0366 61.3472 42.4711 61.4003 41.8465C61.4532 41.222 61.5962 40.6293 61.8294 40.0683C62.0623 39.5071 62.3907 38.9551 62.8145 38.412C63.429 37.6157 64.1387 37.0456 64.9441 36.7016C65.7491 36.3577 66.5648 36.2221 67.3912 36.2943H67.4229L67.4864 36.3215H67.5819C68.0057 36.394 68.3233 36.5842 68.5352 36.8918C68.7895 37.2718 68.8107 37.661 68.5988 38.0591C68.1328 38.9642 66.6496 39.4346 64.1494 39.471C63.8923 39.893 63.6741 40.3383 63.4977 40.8012C63.3178 41.2719 63.1693 41.7787 63.0529 42.3216C62.9364 42.8647 62.984 43.3488 63.1959 43.7741C63.4078 44.1995 63.7787 44.4846 64.3082 44.6293C65.4736 44.8105 67.0838 44.4031 69.139 43.4076C71.1944 42.4122 72.9 41.3353 74.256 40.1768C74.4043 40.0321 74.7964 39.6701 75.4319 39.0908ZM67.709 36.8916C66.6709 36.6925 65.6008 37.3803 64.4989 38.9549C66.5329 38.8826 67.7195 38.5207 68.0584 37.8691C68.1857 37.6157 68.1752 37.3803 68.0267 37.1631C67.9633 37.0545 67.8572 36.9641 67.709 36.8918V36.8916ZM92.2129 39.0908C92.3399 38.9821 92.4777 38.9821 92.626 39.0908C92.7743 39.1995 92.7743 39.3172 92.626 39.4438C92.2597 39.7778 91.8942 40.1126 91.5295 40.4483C91.1164 40.8284 90.4489 41.3894 89.5272 42.1316C88.6056 42.8738 87.737 43.5254 86.9211 44.0862C86.1056 44.6474 85.2313 45.1452 84.2992 45.5796C83.3668 46.0141 82.5828 46.2313 81.9473 46.2313C81.7141 46.2313 81.5022 46.2041 81.3116 46.1497C81.1845 46.1135 81.0469 46.0592 80.8985 45.9867C80.411 45.7516 80.0987 45.3806 79.9609 44.8737C79.8231 44.3668 79.8126 43.8964 79.9292 43.462C80.0456 43.0276 80.2205 42.5841 80.4536 42.1316C80.5383 41.9867 80.6548 41.7742 80.8031 41.4936C80.9228 41.2661 81.0447 41.0399 81.1687 40.8148C81.2639 40.6429 81.3645 40.4348 81.4705 40.1904C81.5764 39.946 81.6453 39.7514 81.677 39.6067C81.7089 39.4618 81.7248 39.3125 81.7248 39.1587C81.7248 39.0047 81.6772 38.8872 81.5818 38.8058C81.4863 38.7243 81.3539 38.6745 81.1845 38.6564C80.3583 38.6383 79.3729 39.0772 78.2287 39.9734C77.0847 40.8692 75.718 42.1407 74.129 43.7877H74.097C73.9276 44.0232 73.6839 44.1406 73.3662 44.1406C73.1967 44.1406 73.0484 44.1045 72.9211 44.0321C72.7092 43.9415 72.5715 43.7922 72.5079 43.5841C72.4446 43.3759 72.4762 43.1814 72.6034 43.0004C73.9169 41.0456 75.2202 39.1904 76.5125 37.4347C76.6397 37.2535 76.8197 37.1405 77.053 37.0954C77.2795 37.0492 77.5148 37.0827 77.7202 37.1903C77.9321 37.299 78.0645 37.4573 78.1176 37.6655C78.1705 37.8736 78.1334 38.0591 78.0063 38.222C77.5613 38.8194 76.8304 39.8601 75.8133 41.3443C77.0847 40.1317 78.2182 39.2538 79.2141 38.7107C80.2098 38.1676 81.1104 38.0229 81.9155 38.2763C82.0002 38.2944 82.085 38.3307 82.1697 38.385C82.4452 38.4937 82.6676 38.6428 82.8371 38.8328C83.0066 39.023 83.1074 39.2401 83.1391 39.4844C83.1708 39.729 83.1761 39.9551 83.1551 40.1632C83.1338 40.3715 83.0597 40.6338 82.9325 40.9507C82.8054 41.2673 82.6993 41.5162 82.6147 41.697C82.5299 41.8782 82.4028 42.1227 82.2333 42.4303C82.1697 42.5751 82.1168 42.6836 82.0743 42.756C81.8202 43.2448 81.6241 43.652 81.4863 43.9777C81.3495 44.2991 81.2792 44.6456 81.2798 44.9958C81.2798 45.349 81.4069 45.5796 81.6612 45.6882C81.6825 45.7063 81.7036 45.7153 81.7248 45.7153C82.2969 45.8059 83.0755 45.6157 84.0609 45.1452C85.046 44.6746 86.0684 44.0502 87.1277 43.272C88.1871 42.4935 89.1353 41.7561 89.9722 41.0592C90.8091 40.3623 91.556 39.7062 92.2129 39.0908Z" fill="#00677B"/>
</g>
</g>
<defs>
<clipPath id="clip0_124_72">
<rect width="94.3725" height="54.889" fill="white"/>
</clipPath>
</defs>
</svg>
